<svg xmlns="http://www.w3.org/2000/svg" viewBox="0 0 27 27"><path d="M1 1h7v7h-7zM12 1h3v1h2v-1h1v2h-2v1h1v1h-2v1h-1v-2h1v-1h-1v-1h-2zM19 1h7v7h-7zM2 2v5h5v-5zM11 2h1v1h-1zM20 2v5h5v-5zM3 3h3v3h-3zM9 3h2v1h-1v1h2v1h-2v3h-1zM12 3h1v1h-1zM21 3h3v3h-3zM17 5h1v1h-1zM12 6h1v1h-1zM15 6h2v1h-1v2h-1zM11 7h1v1h-1zM13 7h1v1h-1zM17 7h1v2h-1zM1 9h1v1h-1zM3 9h5v1h-1v1h-1v1h1v1h-2v1h1v1h-4v3h-1v-4h1v-1h-1v-2h1v-1h1v1h2v-1h-2zM13 9h1v1h-1zM19 9h5v1h-3v3h-1v1h-2v-1h1v-1h1v-2h-1zM9 10h1v1h1v1h-1v1h-1zM11 10h2v1h-2zM14 10h1v1h3v2h-1v1h-2v-1h1v-1h-1v1h-1zM18 10h1v1h-1zM24 10h1v1h1v3h-1v1h1v2h-1v-1h-1v-2h-1v-1h2v-1h-1zM7 11h1v1h-1zM22 11h1v1h-1zM3 12v1h1v-1zM11 12h2v1h1v1h-2v-1h-1zM7 13h1v1h-1zM21 13h1v1h-1zM9 14h1v1h-1zM11 14h1v1h2v1h-1v2h-2v1h-2v-2h3v-1h-1zM17 14h1v1h-1zM20 14h1v1h1v-1h1v2h-1v2h1v1h-1v1h1v1h-1v1h1v-1h1v1h1v-1h1v5h-8v-1h-1v-1h2v1h1v-1h2v-1h-1v-1h-1v1h-2v-1h-1v2h-1v-2h-1v-1h2v-2h-1v1h-1v1h-1v1h-1v-2h1v-1h-1v-1h4v-1h-2v-1h1v-1h1v1h2v-1h1zM7 15h2v2h-1v-1h-1zM4 16h1v1h-1zM3 17h1v1h-1zM6 17h2v1h-2zM23 17h1v1h-1zM18 18v3h3v-3zM1 19h7v7h-7zM19 19h1v1h-1zM23 19h3v1h-1v1h-1v-1h-1zM2 20v5h5v-5zM9 20h2v1h1v1h-2v1h4v1h-1v2h-1v-2h-3zM3 21h3v3h-3zM24 23v1h-1v1h2v-2zM15 24h1v1h-1zM9 25h2v1h-2z"/></svg>